<?xml version="1.0" encoding="utf-8" standalone="no"?>
<!DOCTYPE svg PUBLIC "-//W3C//DTD SVG 1.1//EN"
  "http://www.w3.org/Graphics/SVG/1.1/DTD/svg11.dtd">
<svg xmlns:xlink="http://www.w3.org/1999/xlink" width="360pt" height="360pt" viewBox="0 0 360 360" xmlns="http://www.w3.org/2000/svg" version="1.1">
 <metadata>
  <rdf:RDF xmlns:dc="http://purl.org/dc/elements/1.1/" xmlns:cc="http://creativecommons.org/ns#" xmlns:rdf="http://www.w3.org/1999/02/22-rdf-syntax-ns#">
   <cc:Work>
    <dc:type rdf:resource="http://purl.org/dc/dcmitype/StillImage"/>
    <dc:date>2025-08-25T10:33:24.633300</dc:date>
    <dc:format>image/svg+xml</dc:format>
    <dc:creator>
     <cc:Agent>
      <dc:title>Matplotlib v3.10.3, https://matplotlib.org/</dc:title>
     </cc:Agent>
    </dc:creator>
   </cc:Work>
  </rdf:RDF>
 </metadata>
 <defs>
  <style type="text/css">*{stroke-linejoin: round; stroke-linecap: butt}</style>
 </defs>
 <g id="figure_1">
  <g id="patch_1">
   <path d="M 0 360 
L 360 360 
L 360 0 
L 0 0 
z
" style="fill: #ffffff"/>
  </g>
  <g id="axes_1">
   <g id="patch_2">
    <path d="M 45 320.4 
L 324 320.4 
L 324 43.2 
L 45 43.2 
z
" style="fill: #ffffff"/>
   </g>
   <g id="matplotlib.axis_1">
    <g id="xtick_1">
     <g id="line2d_1">
      <defs>
       <path id="mb0810e35cb" d="M 0 0 
L 0 3.5 
" style="stroke: #000000; stroke-width: 0.8"/>
      </defs>
      <g>
       <use xlink:href="#mb0810e35cb" x="57.681818" y="320.4" style="stroke: #000000; stroke-width: 0.8"/>
      </g>
     </g>
     <g id="text_1">
      <!-- 3754 -->
      <g transform="translate(47.719148 334.318498) scale(0.1 -0.1)">
       <defs>
        <path id="CMR17-33" d="M 1414 2157 
C 1984 2157 2234 1662 2234 1090 
C 2234 320 1824 25 1453 25 
C 1114 25 563 194 390 693 
C 422 680 454 680 486 680 
C 640 680 755 782 755 948 
C 755 1133 614 1216 486 1216 
C 378 1216 211 1165 211 926 
C 211 335 787 -128 1466 -128 
C 2176 -128 2720 430 2720 1085 
C 2720 1707 2208 2157 1600 2227 
C 2086 2328 2554 2756 2554 3329 
C 2554 3820 2048 4179 1472 4179 
C 890 4179 378 3829 378 3329 
C 378 3110 544 3072 627 3072 
C 762 3072 877 3155 877 3321 
C 877 3486 762 3569 627 3569 
C 602 3569 570 3569 544 3557 
C 730 3959 1235 4032 1459 4032 
C 1683 4032 2106 3925 2106 3320 
C 2106 3143 2080 2828 1862 2550 
C 1670 2304 1453 2304 1242 2284 
C 1210 2284 1062 2269 1037 2269 
C 992 2263 966 2257 966 2208 
C 966 2163 973 2157 1101 2157 
L 1414 2157 
z
" transform="scale(0.015625)"/>
        <path id="CMR17-37" d="M 2886 3941 
L 2886 4081 
L 1382 4081 
C 634 4081 621 4165 595 4288 
L 480 4288 
L 294 3094 
L 410 3094 
C 429 3215 474 3540 550 3661 
C 589 3712 1062 3712 1171 3712 
L 2579 3712 
L 1869 2661 
C 1395 1954 1069 999 1069 165 
C 1069 89 1069 -128 1299 -128 
C 1530 -128 1530 89 1530 171 
L 1530 465 
C 1530 1508 1709 2196 2003 2636 
L 2886 3941 
z
" transform="scale(0.015625)"/>
        <path id="CMR17-35" d="M 730 3692 
C 794 3666 1056 3584 1325 3584 
C 1920 3584 2246 3911 2432 4100 
C 2432 4157 2432 4192 2394 4192 
C 2387 4192 2374 4192 2323 4163 
C 2099 4058 1837 3973 1517 3973 
C 1325 3973 1037 3999 723 4139 
C 653 4171 640 4171 634 4171 
C 602 4171 595 4164 595 4037 
L 595 2203 
C 595 2089 595 2057 659 2057 
C 691 2057 704 2070 736 2114 
C 941 2401 1222 2522 1542 2522 
C 1766 2522 2246 2382 2246 1289 
C 2246 1085 2246 715 2054 421 
C 1894 159 1645 25 1370 25 
C 947 25 518 320 403 814 
C 429 807 480 795 506 795 
C 589 795 749 840 749 1038 
C 749 1210 627 1280 506 1280 
C 358 1280 262 1190 262 1011 
C 262 454 704 -128 1382 -128 
C 2042 -128 2669 440 2669 1264 
C 2669 2030 2170 2624 1549 2624 
C 1222 2624 947 2503 730 2274 
L 730 3692 
z
" transform="scale(0.015625)"/>
        <path id="CMR17-34" d="M 2150 4122 
C 2150 4256 2144 4256 2029 4256 
L 128 1254 
L 128 1088 
L 1779 1088 
L 1779 457 
C 1779 224 1766 160 1318 160 
L 1197 160 
L 1197 0 
C 1402 0 1747 0 1965 0 
C 2182 0 2528 0 2733 0 
L 2733 160 
L 2611 160 
C 2163 160 2150 224 2150 457 
L 2150 1088 
L 2803 1088 
L 2803 1254 
L 2150 1254 
L 2150 4122 
z
M 1798 3703 
L 1798 1254 
L 256 1254 
L 1798 3703 
z
" transform="scale(0.015625)"/>
       </defs>
       <use xlink:href="#CMR17-33" transform="scale(0.996264)"/>
       <use xlink:href="#CMR17-37" transform="translate(45.690477 0) scale(0.996264)"/>
       <use xlink:href="#CMR17-35" transform="translate(91.380954 0) scale(0.996264)"/>
       <use xlink:href="#CMR17-34" transform="translate(137.071431 0) scale(0.996264)"/>
      </g>
     </g>
    </g>
    <g id="xtick_2">
     <g id="line2d_2">
      <g>
       <use xlink:href="#mb0810e35cb" x="184.5" y="320.4" style="stroke: #000000; stroke-width: 0.8"/>
      </g>
     </g>
     <g id="text_2">
      <!-- 3755 -->
      <g transform="translate(174.537329 334.318498) scale(0.1 -0.1)">
       <use xlink:href="#CMR17-33" transform="scale(0.996264)"/>
       <use xlink:href="#CMR17-37" transform="translate(45.690477 0) scale(0.996264)"/>
       <use xlink:href="#CMR17-35" transform="translate(91.380954 0) scale(0.996264)"/>
       <use xlink:href="#CMR17-35" transform="translate(137.071431 0) scale(0.996264)"/>
      </g>
     </g>
    </g>
    <g id="xtick_3">
     <g id="line2d_3">
      <g>
       <use xlink:href="#mb0810e35cb" x="311.318182" y="320.4" style="stroke: #000000; stroke-width: 0.8"/>
      </g>
     </g>
     <g id="text_3">
      <!-- 3756 -->
      <g transform="translate(301.355511 334.318498) scale(0.1 -0.1)">
       <defs>
        <path id="CMR17-36" d="M 678 2176 
C 678 3690 1395 4032 1811 4032 
C 1946 4032 2272 4009 2400 3776 
C 2298 3776 2106 3776 2106 3553 
C 2106 3381 2246 3323 2336 3323 
C 2394 3323 2566 3348 2566 3560 
C 2566 3954 2246 4179 1805 4179 
C 1043 4179 243 3390 243 1984 
C 243 253 966 -128 1478 -128 
C 2099 -128 2688 427 2688 1283 
C 2688 2081 2170 2662 1517 2662 
C 1126 2662 838 2407 678 1960 
L 678 2176 
z
M 1478 25 
C 691 25 691 1200 691 1436 
C 691 1896 909 2560 1504 2560 
C 1613 2560 1926 2560 2138 2120 
C 2253 1870 2253 1609 2253 1289 
C 2253 944 2253 690 2118 434 
C 1978 171 1773 25 1478 25 
z
" transform="scale(0.015625)"/>
       </defs>
       <use xlink:href="#CMR17-33" transform="scale(0.996264)"/>
       <use xlink:href="#CMR17-37" transform="translate(45.690477 0) scale(0.996264)"/>
       <use xlink:href="#CMR17-35" transform="translate(91.380954 0) scale(0.996264)"/>
       <use xlink:href="#CMR17-36" transform="translate(137.071431 0) scale(0.996264)"/>
      </g>
     </g>
    </g>
    <g id="text_4">
     <!-- Elapsed time (ms) -->
     <g transform="translate(144.524831 347.727657) scale(0.1 -0.1)">
      <defs>
       <path id="CMR17-45" d="M 3885 1615 
L 3770 1615 
C 3629 676 3546 166 2419 166 
L 1530 166 
C 1274 166 1261 197 1261 414 
L 1261 2176 
L 1862 2176 
C 2464 2176 2522 1960 2522 1430 
L 2637 1430 
L 2637 3081 
L 2522 3081 
C 2522 2557 2464 2342 1862 2342 
L 1261 2342 
L 1261 3913 
C 1261 4128 1274 4160 1530 4160 
L 2406 4160 
C 3398 4160 3514 3769 3603 2929 
L 3718 2929 
L 3565 4325 
L 326 4325 
L 326 4160 
C 768 4160 838 4160 838 3874 
L 838 451 
C 838 166 768 166 326 166 
L 326 0 
L 3654 0 
L 3885 1615 
z
" transform="scale(0.015625)"/>
       <path id="CMR17-6c" d="M 979 4396 
L 218 4326 
L 218 4160 
C 595 4160 653 4122 653 3817 
L 653 426 
C 653 184 627 153 218 153 
L 218 -13 
C 371 0 653 0 813 0 
C 979 0 1261 0 1414 -13 
L 1414 153 
C 1005 153 979 178 979 426 
L 979 4396 
z
" transform="scale(0.015625)"/>
       <path id="CMR17-61" d="M 2304 1653 
C 2304 2072 2304 2294 2035 2543 
C 1798 2752 1523 2816 1306 2816 
C 800 2816 435 2407 435 1971 
C 435 1728 627 1728 666 1728 
C 749 1728 896 1778 896 1954 
C 896 2112 774 2181 666 2181 
C 640 2181 608 2174 589 2168 
C 723 2592 1069 2714 1293 2714 
C 1613 2714 1965 2429 1965 1885 
L 1965 1600 
C 1587 1600 1133 1549 774 1357 
C 371 1133 256 813 256 570 
C 256 77 832 -64 1171 -64 
C 1523 -64 1850 139 1990 511 
C 2003 233 2182 -18 2464 -18 
C 2598 -18 2938 70 2938 567 
L 2938 920 
L 2822 920 
L 2822 562 
C 2822 178 2650 128 2566 128 
C 2304 128 2304 458 2304 738 
L 2304 1653 
z
M 1965 870 
C 1965 317 1568 38 1216 38 
C 896 38 646 275 646 570 
C 646 761 730 1100 1101 1305 
C 1408 1478 1760 1504 1965 1504 
L 1965 870 
z
" transform="scale(0.015625)"/>
       <path id="CMR17-70" d="M 1408 -1063 
C 998 -1063 973 -1037 973 -789 
L 973 402 
C 1158 134 1427 -38 1766 -38 
C 2406 -38 3053 523 3053 1388 
C 3053 2191 2496 2802 1837 2802 
C 1453 2802 1139 2592 960 2338 
L 960 2802 
L 198 2732 
L 198 2567 
C 576 2567 634 2528 634 2223 
L 634 -789 
C 634 -1031 608 -1063 198 -1063 
L 198 -1228 
C 352 -1216 634 -1216 800 -1216 
C 966 -1216 1254 -1216 1408 -1228 
L 1408 -1063 
z
M 973 2012 
C 973 2102 973 2235 1222 2471 
C 1254 2497 1472 2688 1792 2688 
C 2259 2688 2643 2108 2643 1382 
C 2643 656 2234 64 1728 64 
C 1498 64 1248 172 1056 472 
C 973 612 973 650 973 752 
L 973 2012 
z
" transform="scale(0.015625)"/>
       <path id="CMR17-73" d="M 1978 2697 
C 1978 2813 1971 2819 1933 2819 
C 1907 2819 1901 2813 1824 2717 
C 1805 2691 1747 2626 1728 2601 
C 1523 2819 1235 2819 1126 2819 
C 416 2819 160 2447 160 2076 
C 160 1498 813 1365 998 1325 
C 1402 1243 1542 1217 1677 1101 
C 1760 1025 1901 884 1901 654 
C 1901 384 1747 38 1158 38 
C 602 38 403 460 288 1021 
C 269 1110 269 1117 218 1117 
C 166 1117 160 1110 160 983 
L 160 63 
C 160 -51 166 -58 205 -58 
C 237 -58 243 -51 275 0 
C 314 57 410 211 448 276 
C 576 103 800 -64 1158 -64 
C 1792 -64 2131 283 2131 784 
C 2131 1112 1958 1285 1875 1362 
C 1683 1561 1459 1606 1190 1657 
C 838 1735 390 1825 390 2217 
C 390 2383 480 2737 1126 2737 
C 1811 2737 1850 2094 1862 1888 
C 1869 1856 1901 1849 1920 1849 
C 1978 1849 1978 1869 1978 1978 
L 1978 2697 
z
" transform="scale(0.015625)"/>
       <path id="CMR17-65" d="M 2438 1472 
C 2464 1498 2464 1511 2464 1576 
C 2464 2238 2118 2816 1389 2816 
C 710 2816 173 2169 173 1383 
C 173 551 781 -64 1459 -64 
C 2176 -64 2458 607 2458 740 
C 2458 784 2419 784 2406 784 
C 2362 784 2355 771 2330 696 
C 2189 265 1837 51 1504 51 
C 1229 51 954 203 781 480 
C 582 803 582 1176 582 1472 
L 2438 1472 
z
M 589 1568 
C 634 2505 1126 2714 1382 2714 
C 1818 2714 2112 2297 2118 1568 
L 589 1568 
z
" transform="scale(0.015625)"/>
       <path id="CMR17-64" d="M 1869 4326 
L 1869 4160 
C 2246 4160 2304 4122 2304 3820 
L 2304 2345 
C 2278 2377 2016 2790 1498 2790 
C 845 2790 211 2208 211 1364 
C 211 525 806 -64 1434 -64 
C 1978 -64 2259 337 2291 380 
L 2291 -63 
L 3066 -63 
L 3066 128 
C 2688 128 2630 166 2630 473 
L 2630 4396 
L 1869 4326 
z
M 2291 755 
C 2291 563 2176 390 2029 262 
C 1811 70 1594 38 1472 38 
C 1286 38 621 134 621 1356 
C 621 2612 1363 2688 1530 2688 
C 1824 2688 2061 2522 2208 2291 
C 2291 2157 2291 2138 2291 2023 
L 2291 755 
z
" transform="scale(0.015625)"/>
       <path id="CMR17-74" d="M 966 2560 
L 1862 2560 
L 1862 2725 
L 966 2725 
L 966 3904 
L 851 3904 
C 838 3245 614 2668 70 2668 
L 70 2560 
L 627 2560 
L 627 771 
C 627 650 627 -64 1370 -64 
C 1747 -64 1965 306 1965 777 
L 1965 1140 
L 1850 1140 
L 1850 783 
C 1850 344 1677 51 1408 51 
C 1222 51 966 178 966 758 
L 966 2560 
z
" transform="scale(0.015625)"/>
       <path id="CMR17-69" d="M 992 3909 
C 992 4049 877 4170 730 4170 
C 589 4170 467 4056 467 3909 
C 467 3769 582 3648 730 3648 
C 870 3648 992 3763 992 3909 
z
M 243 2706 
L 243 2541 
C 602 2541 653 2502 653 2197 
L 653 427 
C 653 184 627 153 218 153 
L 218 -13 
C 371 0 646 0 806 0 
C 960 0 1222 0 1370 -13 
L 1370 153 
C 992 153 979 191 979 420 
L 979 2776 
L 243 2706 
z
" transform="scale(0.015625)"/>
       <path id="CMR17-6d" d="M 4326 1933 
C 4326 2252 4269 2790 3507 2790 
C 3072 2790 2771 2496 2656 2151 
L 2650 2151 
C 2573 2676 2195 2790 1837 2790 
C 1331 2790 1069 2400 973 2144 
L 966 2144 
L 966 2790 
L 211 2720 
L 211 2554 
C 589 2554 646 2515 646 2208 
L 646 428 
C 646 184 621 153 211 153 
L 211 -13 
C 365 0 646 0 813 0 
C 979 0 1267 0 1421 -13 
L 1421 153 
C 1011 153 986 178 986 428 
L 986 1658 
C 986 2247 1344 2688 1792 2688 
C 2266 2688 2317 2266 2317 1958 
L 2317 428 
C 2317 184 2291 153 1882 153 
L 1882 -13 
C 2035 0 2317 0 2483 0 
C 2650 0 2938 0 3091 -13 
L 3091 153 
C 2682 153 2656 178 2656 428 
L 2656 1658 
C 2656 2247 3014 2688 3462 2688 
C 3936 2688 3987 2266 3987 1958 
L 3987 428 
C 3987 184 3962 153 3552 153 
L 3552 -13 
C 3706 0 3987 0 4154 0 
C 4320 0 4608 0 4762 -13 
L 4762 153 
C 4352 153 4326 178 4326 428 
L 4326 1933 
z
" transform="scale(0.015625)"/>
       <path id="CMR17-28" d="M 1958 -1561 
C 1958 -1555 1958 -1542 1939 -1523 
C 1645 -1224 858 -407 858 1581 
C 858 3569 1632 4379 1946 4697 
C 1946 4704 1958 4717 1958 4736 
C 1958 4755 1939 4768 1914 4768 
C 1843 4768 1299 4296 986 3594 
C 666 2887 576 2199 576 1588 
C 576 1128 621 351 1005 -471 
C 1312 -1135 1837 -1600 1914 -1600 
C 1946 -1600 1958 -1587 1958 -1561 
z
" transform="scale(0.015625)"/>
       <path id="CMR17-29" d="M 1683 1581 
C 1683 2040 1638 2817 1254 3639 
C 947 4303 422 4768 346 4768 
C 326 4768 301 4761 301 4729 
C 301 4717 307 4710 314 4697 
C 621 4378 1402 3568 1402 1584 
C 1402 -407 627 -1217 314 -1537 
C 307 -1549 301 -1556 301 -1568 
C 301 -1600 326 -1600 346 -1600 
C 416 -1600 960 -1128 1274 -426 
C 1594 281 1683 969 1683 1581 
z
" transform="scale(0.015625)"/>
      </defs>
      <use xlink:href="#CMR17-45" transform="scale(0.996264)"/>
      <use xlink:href="#CMR17-6c" transform="translate(62.586301 0) scale(0.996264)"/>
      <use xlink:href="#CMR17-61" transform="translate(87.457359 0) scale(0.996264)"/>
      <use xlink:href="#CMR17-70" transform="translate(133.147836 0) scale(0.996264)"/>
      <use xlink:href="#CMR17-73" transform="translate(184.043206 0) scale(0.996264)"/>
      <use xlink:href="#CMR17-65" transform="translate(219.844544 0) scale(0.996264)"/>
      <use xlink:href="#CMR17-64" transform="translate(260.330204 0) scale(0.996264)"/>
      <use xlink:href="#CMR17-74" transform="translate(341.30154 0) scale(0.996264)"/>
      <use xlink:href="#CMR17-69" transform="translate(376.582308 0) scale(0.996264)"/>
      <use xlink:href="#CMR17-6d" transform="translate(401.453366 0) scale(0.996264)"/>
      <use xlink:href="#CMR17-65" transform="translate(478.372956 0) scale(0.996264)"/>
      <use xlink:href="#CMR17-28" transform="translate(548.934583 0) scale(0.996264)"/>
      <use xlink:href="#CMR17-6d" transform="translate(584.215351 0) scale(0.996264)"/>
      <use xlink:href="#CMR17-73" transform="translate(661.134941 0) scale(0.996264)"/>
      <use xlink:href="#CMR17-29" transform="translate(696.936278 0) scale(0.996264)"/>
     </g>
    </g>
   </g>
   <g id="matplotlib.axis_2">
    <g id="ytick_1">
     <g id="line2d_4">
      <path d="M 45 320.4 
L 324 320.4 
" clip-path="url(#pa83155490c)" style="fill: none; stroke-dasharray: 2.96,1.28; stroke-dashoffset: 0; stroke: #b0b0b0; stroke-opacity: 0.5; stroke-width: 0.8"/>
     </g>
     <g id="line2d_5">
      <defs>
       <path id="md14c1bcff5" d="M 0 0 
L -3.5 0 
" style="stroke: #000000; stroke-width: 0.8"/>
      </defs>
      <g>
       <use xlink:href="#md14c1bcff5" x="45" y="320.4" style="stroke: #000000; stroke-width: 0.8"/>
      </g>
     </g>
     <g id="text_5">
      <!-- $\mathdefault{0}$ -->
      <g transform="translate(33.018665 323.859249) scale(0.1 -0.1)">
       <defs>
        <path id="CMR17-30" d="M 2688 2025 
C 2688 2416 2682 3080 2413 3591 
C 2176 4039 1798 4198 1466 4198 
C 1158 4198 768 4058 525 3597 
C 269 3118 243 2524 243 2025 
C 243 1661 250 1106 448 619 
C 723 -39 1216 -128 1466 -128 
C 1760 -128 2208 -7 2470 600 
C 2662 1042 2688 1559 2688 2025 
z
M 1466 -26 
C 1056 -26 813 325 723 812 
C 653 1188 653 1738 653 2096 
C 653 2588 653 2997 736 3387 
C 858 3929 1216 4096 1466 4096 
C 1728 4096 2067 3923 2189 3400 
C 2272 3036 2278 2607 2278 2096 
C 2278 1680 2278 1169 2202 792 
C 2067 95 1690 -26 1466 -26 
z
" transform="scale(0.015625)"/>
       </defs>
       <use xlink:href="#CMR17-30" transform="scale(0.996264)"/>
      </g>
     </g>
    </g>
    <g id="ytick_2">
     <g id="line2d_6">
      <path d="M 45 269.425377 
L 324 269.425377 
" clip-path="url(#pa83155490c)" style="fill: none; stroke-dasharray: 2.96,1.28; stroke-dashoffset: 0; stroke: #b0b0b0; stroke-opacity: 0.5; stroke-width: 0.8"/>
     </g>
     <g id="line2d_7">
      <g>
       <use xlink:href="#md14c1bcff5" x="45" y="269.425377" style="stroke: #000000; stroke-width: 0.8"/>
      </g>
     </g>
     <g id="text_6">
      <!-- $\mathdefault{50}$ -->
      <g transform="translate(28.037329 272.884626) scale(0.1 -0.1)">
       <use xlink:href="#CMR17-35" transform="scale(0.996264)"/>
       <use xlink:href="#CMR17-30" transform="translate(45.690477 0) scale(0.996264)"/>
      </g>
     </g>
    </g>
    <g id="ytick_3">
     <g id="line2d_8">
      <path d="M 45 218.450754 
L 324 218.450754 
" clip-path="url(#pa83155490c)" style="fill: none; stroke-dasharray: 2.96,1.28; stroke-dashoffset: 0; stroke: #b0b0b0; stroke-opacity: 0.5; stroke-width: 0.8"/>
     </g>
     <g id="line2d_9">
      <g>
       <use xlink:href="#md14c1bcff5" x="45" y="218.450754" style="stroke: #000000; stroke-width: 0.8"/>
      </g>
     </g>
     <g id="text_7">
      <!-- $\mathdefault{100}$ -->
      <g transform="translate(23.055994 221.910003) scale(0.1 -0.1)">
       <defs>
        <path id="CMR17-31" d="M 1702 4058 
C 1702 4192 1696 4192 1606 4192 
C 1357 3916 979 3827 621 3827 
C 602 3827 570 3827 563 3808 
C 557 3795 557 3782 557 3648 
C 755 3648 1088 3686 1344 3839 
L 1344 461 
C 1344 236 1331 160 781 160 
L 589 160 
L 589 0 
C 896 0 1216 0 1523 0 
C 1830 0 2150 0 2458 0 
L 2458 160 
L 2266 160 
C 1715 160 1702 230 1702 458 
L 1702 4058 
z
" transform="scale(0.015625)"/>
       </defs>
       <use xlink:href="#CMR17-31" transform="scale(0.996264)"/>
       <use xlink:href="#CMR17-30" transform="translate(45.690477 0) scale(0.996264)"/>
       <use xlink:href="#CMR17-30" transform="translate(91.380954 0) scale(0.996264)"/>
      </g>
     </g>
    </g>
    <g id="ytick_4">
     <g id="line2d_10">
      <path d="M 45 167.476131 
L 324 167.476131 
" clip-path="url(#pa83155490c)" style="fill: none; stroke-dasharray: 2.96,1.28; stroke-dashoffset: 0; stroke: #b0b0b0; stroke-opacity: 0.5; stroke-width: 0.8"/>
     </g>
     <g id="line2d_11">
      <g>
       <use xlink:href="#md14c1bcff5" x="45" y="167.476131" style="stroke: #000000; stroke-width: 0.8"/>
      </g>
     </g>
     <g id="text_8">
      <!-- $\mathdefault{150}$ -->
      <g transform="translate(23.055994 170.93538) scale(0.1 -0.1)">
       <use xlink:href="#CMR17-31" transform="scale(0.996264)"/>
       <use xlink:href="#CMR17-35" transform="translate(45.690477 0) scale(0.996264)"/>
       <use xlink:href="#CMR17-30" transform="translate(91.380954 0) scale(0.996264)"/>
      </g>
     </g>
    </g>
    <g id="ytick_5">
     <g id="line2d_12">
      <path d="M 45 116.501508 
L 324 116.501508 
" clip-path="url(#pa83155490c)" style="fill: none; stroke-dasharray: 2.96,1.28; stroke-dashoffset: 0; stroke: #b0b0b0; stroke-opacity: 0.5; stroke-width: 0.8"/>
     </g>
     <g id="line2d_13">
      <g>
       <use xlink:href="#md14c1bcff5" x="45" y="116.501508" style="stroke: #000000; stroke-width: 0.8"/>
      </g>
     </g>
     <g id="text_9">
      <!-- $\mathdefault{200}$ -->
      <g transform="translate(23.055994 119.960757) scale(0.1 -0.1)">
       <defs>
        <path id="CMR17-32" d="M 2669 989 
L 2554 989 
C 2490 536 2438 459 2413 420 
C 2381 369 1920 369 1830 369 
L 602 369 
C 832 619 1280 1072 1824 1597 
C 2214 1967 2669 2402 2669 3035 
C 2669 3790 2067 4224 1395 4224 
C 691 4224 262 3604 262 3030 
C 262 2780 448 2748 525 2748 
C 589 2748 781 2787 781 3010 
C 781 3207 614 3264 525 3264 
C 486 3264 448 3258 422 3245 
C 544 3790 915 4058 1306 4058 
C 1862 4058 2227 3617 2227 3035 
C 2227 2479 1901 2000 1536 1584 
L 262 146 
L 262 0 
L 2515 0 
L 2669 989 
z
" transform="scale(0.015625)"/>
       </defs>
       <use xlink:href="#CMR17-32" transform="scale(0.996264)"/>
       <use xlink:href="#CMR17-30" transform="translate(45.690477 0) scale(0.996264)"/>
       <use xlink:href="#CMR17-30" transform="translate(91.380954 0) scale(0.996264)"/>
      </g>
     </g>
    </g>
    <g id="ytick_6">
     <g id="line2d_14">
      <path d="M 45 65.526885 
L 324 65.526885 
" clip-path="url(#pa83155490c)" style="fill: none; stroke-dasharray: 2.96,1.28; stroke-dashoffset: 0; stroke: #b0b0b0; stroke-opacity: 0.5; stroke-width: 0.8"/>
     </g>
     <g id="line2d_15">
      <g>
       <use xlink:href="#md14c1bcff5" x="45" y="65.526885" style="stroke: #000000; stroke-width: 0.8"/>
      </g>
     </g>
     <g id="text_10">
      <!-- $\mathdefault{250}$ -->
      <g transform="translate(23.055994 68.986134) scale(0.1 -0.1)">
       <use xlink:href="#CMR17-32" transform="scale(0.996264)"/>
       <use xlink:href="#CMR17-35" transform="translate(45.690477 0) scale(0.996264)"/>
       <use xlink:href="#CMR17-30" transform="translate(91.380954 0) scale(0.996264)"/>
      </g>
     </g>
    </g>
    <g id="text_11">
     <!-- Number of updates received -->
     <g transform="translate(17.118816 242.876627) rotate(-90) scale(0.1 -0.1)">
      <defs>
       <path id="CMR17-4e" d="M 1312 4250 
C 1267 4320 1261 4320 1139 4320 
L 326 4320 
L 326 4160 
L 448 4160 
C 704 4160 819 4129 838 4122 
L 838 610 
C 838 451 838 153 326 153 
L 326 -13 
C 474 0 742 0 902 0 
C 1062 0 1331 0 1478 -13 
L 1478 153 
C 966 153 966 451 966 610 
L 966 4033 
C 1011 3995 1011 3982 1056 3919 
L 3430 76 
C 3475 0 3494 0 3526 0 
C 3590 0 3590 19 3590 139 
L 3590 3705 
C 3590 3863 3590 4160 4102 4160 
L 4102 4326 
C 3955 4320 3686 4320 3526 4320 
C 3366 4320 3098 4320 2950 4326 
L 2950 4160 
C 3462 4160 3462 3862 3462 3703 
L 3462 763 
L 1312 4250 
z
" transform="scale(0.015625)"/>
       <path id="CMR17-75" d="M 1882 2693 
L 1882 2528 
C 2259 2528 2317 2489 2317 2186 
L 2317 1032 
C 2317 500 2029 38 1555 38 
C 1030 38 986 348 986 678 
L 986 2763 
L 211 2693 
L 211 2528 
C 467 2528 640 2528 646 2274 
L 646 1058 
C 646 633 646 361 813 183 
C 896 101 1056 -64 1517 -64 
C 2061 -64 2272 377 2323 506 
L 2330 506 
L 2330 -63 
L 3091 -63 
L 3091 128 
C 2714 128 2656 166 2656 473 
L 2656 2763 
L 1882 2693 
z
" transform="scale(0.015625)"/>
       <path id="CMR17-62" d="M 960 4396 
L 198 4326 
L 198 4160 
C 576 4160 634 4122 634 3817 
L 634 -13 
L 749 -13 
L 934 441 
C 1120 141 1395 -64 1766 -64 
C 2406 -64 3053 500 3053 1370 
C 3053 2188 2477 2790 1830 2790 
C 1434 2790 1152 2579 960 2330 
L 960 4396 
z
M 973 2004 
C 973 2118 973 2138 1062 2272 
C 1312 2657 1670 2688 1792 2688 
C 1984 2688 2643 2585 2643 1376 
C 2643 108 1888 38 1734 38 
C 1536 38 1248 114 1043 486 
C 973 608 973 621 973 735 
L 973 2004 
z
" transform="scale(0.015625)"/>
       <path id="CMR17-72" d="M 960 1497 
C 960 2112 1222 2688 1702 2688 
C 1747 2688 1792 2682 1837 2662 
C 1837 2662 1696 2617 1696 2452 
C 1696 2298 1818 2234 1914 2234 
C 1990 2234 2131 2279 2131 2458 
C 2131 2663 1926 2790 1709 2790 
C 1222 2790 1011 2317 947 2093 
L 941 2093 
L 941 2790 
L 198 2720 
L 198 2554 
C 576 2554 634 2515 634 2208 
L 634 428 
C 634 184 608 153 198 153 
L 198 -13 
C 352 0 646 0 813 0 
C 998 0 1325 0 1498 -13 
L 1498 153 
C 1037 153 960 153 960 440 
L 960 1497 
z
" transform="scale(0.015625)"/>
       <path id="CMR17-6f" d="M 2758 1356 
C 2758 2176 2163 2816 1466 2816 
C 768 2816 173 2176 173 1356 
C 173 551 768 -64 1466 -64 
C 2163 -64 2758 551 2758 1356 
z
M 1466 51 
C 1165 51 909 230 762 480 
C 602 767 582 1126 582 1408 
C 582 1677 595 2010 762 2298 
C 890 2509 1139 2714 1466 2714 
C 1754 2714 1997 2554 2150 2330 
C 2349 2029 2349 1607 2349 1408 
C 2349 1158 2336 775 2163 467 
C 1984 173 1709 51 1466 51 
z
" transform="scale(0.015625)"/>
       <path id="CMR17-66" d="M 979 2560 
L 1709 2560 
L 1709 2725 
L 966 2725 
L 966 3494 
C 966 4022 1235 4352 1510 4352 
C 1594 4352 1690 4327 1754 4282 
C 1702 4269 1568 4225 1568 4067 
C 1568 3901 1696 3850 1786 3850 
C 1875 3850 2003 3901 2003 4067 
C 2003 4308 1773 4454 1517 4454 
C 1152 4454 653 4156 653 3481 
L 653 2725 
L 141 2725 
L 141 2560 
L 653 2560 
L 653 427 
C 653 184 627 153 218 153 
L 218 -13 
C 371 0 666 0 832 0 
C 1018 0 1344 0 1517 -13 
L 1517 153 
C 1056 153 979 153 979 439 
L 979 2560 
z
" transform="scale(0.015625)"/>
       <path id="CMR17-63" d="M 2234 2240 
C 2112 2240 1933 2240 1933 2017 
C 1933 1838 2080 1787 2163 1787 
C 2208 1787 2394 1807 2394 2024 
C 2394 2467 1958 2803 1466 2803 
C 787 2803 211 2178 211 1363 
C 211 516 813 -64 1466 -64 
C 2259 -64 2458 677 2458 748 
C 2458 774 2451 793 2406 793 
C 2362 793 2355 787 2330 703 
C 2163 180 1798 51 1523 51 
C 1114 51 621 427 621 1369 
C 621 2338 1094 2688 1472 2688 
C 1722 2688 2093 2573 2234 2240 
z
" transform="scale(0.015625)"/>
       <path id="CMR17-76" d="M 2502 2163 
C 2560 2304 2662 2560 3034 2560 
L 3034 2726 
C 2912 2726 2752 2726 2630 2726 
C 2496 2726 2285 2726 2157 2732 
L 2157 2566 
C 2317 2553 2406 2477 2406 2311 
C 2406 2253 2406 2240 2368 2151 
L 1664 377 
L 902 2286 
C 864 2369 864 2381 864 2407 
C 864 2560 1075 2560 1171 2560 
L 1171 2732 
C 1018 2726 736 2726 576 2726 
C 403 2726 205 2726 64 2732 
L 64 2560 
C 307 2560 442 2560 518 2362 
L 1446 44 
C 1485 -51 1491 -64 1549 -64 
C 1606 -64 1613 -51 1651 44 
L 2502 2163 
z
" transform="scale(0.015625)"/>
      </defs>
      <use xlink:href="#CMR17-4e" transform="scale(0.996264)"/>
      <use xlink:href="#CMR17-75" transform="translate(69.07243 0) scale(0.996264)"/>
      <use xlink:href="#CMR17-6d" transform="translate(119.9678 0) scale(0.996264)"/>
      <use xlink:href="#CMR17-62" transform="translate(194.284936 0) scale(0.996264)"/>
      <use xlink:href="#CMR17-65" transform="translate(247.782744 0) scale(0.996264)"/>
      <use xlink:href="#CMR17-72" transform="translate(288.268404 0) scale(0.996264)"/>
      <use xlink:href="#CMR17-6f" transform="translate(353.625139 0) scale(0.996264)"/>
      <use xlink:href="#CMR17-66" transform="translate(399.315616 0) scale(0.996264)"/>
      <use xlink:href="#CMR17-75" transform="translate(456.865095 0) scale(0.996264)"/>
      <use xlink:href="#CMR17-70" transform="translate(507.760464 0) scale(0.996264)"/>
      <use xlink:href="#CMR17-64" transform="translate(561.258273 0) scale(0.996264)"/>
      <use xlink:href="#CMR17-61" transform="translate(612.153643 0) scale(0.996264)"/>
      <use xlink:href="#CMR17-74" transform="translate(657.84412 0) scale(0.996264)"/>
      <use xlink:href="#CMR17-65" transform="translate(693.124888 0) scale(0.996264)"/>
      <use xlink:href="#CMR17-73" transform="translate(733.610548 0) scale(0.996264)"/>
      <use xlink:href="#CMR17-72" transform="translate(799.487852 0) scale(0.996264)"/>
      <use xlink:href="#CMR17-65" transform="translate(834.76862 0) scale(0.996264)"/>
      <use xlink:href="#CMR17-63" transform="translate(875.25428 0) scale(0.996264)"/>
      <use xlink:href="#CMR17-65" transform="translate(915.739941 0) scale(0.996264)"/>
      <use xlink:href="#CMR17-69" transform="translate(956.225601 0) scale(0.996264)"/>
      <use xlink:href="#CMR17-76" transform="translate(981.09666 0) scale(0.996264)"/>
      <use xlink:href="#CMR17-65" transform="translate(1026.787122 0) scale(0.996264)"/>
      <use xlink:href="#CMR17-64" transform="translate(1067.272782 0) scale(0.996264)"/>
     </g>
    </g>
   </g>
   <g id="line2d_16">
    <path d="M 57.681818 319.380508 
L 57.681818 253.113498 
L 184.5 252.094005 
L 184.5 88.975211 
L 311.318182 87.955719 
L 311.318182 56.351453 
L 311.318182 56.351453 
" clip-path="url(#pa83155490c)" style="fill: none; stroke: #1f77b4; stroke-width: 1.5; stroke-linecap: square"/>
    <defs>
     <path id="m60408d22ba" d="M 0 1.5 
C 0.397805 1.5 0.77937 1.341951 1.06066 1.06066 
C 1.341951 0.77937 1.5 0.397805 1.5 0 
C 1.5 -0.397805 1.341951 -0.77937 1.06066 -1.06066 
C 0.77937 -1.341951 0.397805 -1.5 0 -1.5 
C -0.397805 -1.5 -0.77937 -1.341951 -1.06066 -1.06066 
C -1.341951 -0.77937 -1.5 -0.397805 -1.5 0 
C -1.5 0.397805 -1.341951 0.77937 -1.06066 1.06066 
C -0.77937 1.341951 -0.397805 1.5 0 1.5 
z
" style="stroke: #1f77b4"/>
    </defs>
    <g clip-path="url(#pa83155490c)">
     <use xlink:href="#m60408d22ba" x="57.681818" y="319.380508" style="fill: #1f77b4; stroke: #1f77b4"/>
     <use xlink:href="#m60408d22ba" x="57.681818" y="318.361015" style="fill: #1f77b4; stroke: #1f77b4"/>
     <use xlink:href="#m60408d22ba" x="57.681818" y="317.341523" style="fill: #1f77b4; stroke: #1f77b4"/>
     <use xlink:href="#m60408d22ba" x="57.681818" y="316.32203" style="fill: #1f77b4; stroke: #1f77b4"/>
     <use xlink:href="#m60408d22ba" x="57.681818" y="315.302538" style="fill: #1f77b4; stroke: #1f77b4"/>
     <use xlink:href="#m60408d22ba" x="57.681818" y="314.283045" style="fill: #1f77b4; stroke: #1f77b4"/>
     <use xlink:href="#m60408d22ba" x="57.681818" y="313.263553" style="fill: #1f77b4; stroke: #1f77b4"/>
     <use xlink:href="#m60408d22ba" x="57.681818" y="312.24406" style="fill: #1f77b4; stroke: #1f77b4"/>
     <use xlink:href="#m60408d22ba" x="57.681818" y="311.224568" style="fill: #1f77b4; stroke: #1f77b4"/>
     <use xlink:href="#m60408d22ba" x="57.681818" y="310.205075" style="fill: #1f77b4; stroke: #1f77b4"/>
     <use xlink:href="#m60408d22ba" x="57.681818" y="309.185583" style="fill: #1f77b4; stroke: #1f77b4"/>
     <use xlink:href="#m60408d22ba" x="57.681818" y="308.16609" style="fill: #1f77b4; stroke: #1f77b4"/>
     <use xlink:href="#m60408d22ba" x="57.681818" y="307.146598" style="fill: #1f77b4; stroke: #1f77b4"/>
     <use xlink:href="#m60408d22ba" x="57.681818" y="306.127106" style="fill: #1f77b4; stroke: #1f77b4"/>
     <use xlink:href="#m60408d22ba" x="57.681818" y="305.107613" style="fill: #1f77b4; stroke: #1f77b4"/>
     <use xlink:href="#m60408d22ba" x="57.681818" y="304.088121" style="fill: #1f77b4; stroke: #1f77b4"/>
     <use xlink:href="#m60408d22ba" x="57.681818" y="303.068628" style="fill: #1f77b4; stroke: #1f77b4"/>
     <use xlink:href="#m60408d22ba" x="57.681818" y="302.049136" style="fill: #1f77b4; stroke: #1f77b4"/>
     <use xlink:href="#m60408d22ba" x="57.681818" y="301.029643" style="fill: #1f77b4; stroke: #1f77b4"/>
     <use xlink:href="#m60408d22ba" x="57.681818" y="300.010151" style="fill: #1f77b4; stroke: #1f77b4"/>
     <use xlink:href="#m60408d22ba" x="57.681818" y="298.990658" style="fill: #1f77b4; stroke: #1f77b4"/>
     <use xlink:href="#m60408d22ba" x="57.681818" y="297.971166" style="fill: #1f77b4; stroke: #1f77b4"/>
     <use xlink:href="#m60408d22ba" x="57.681818" y="296.951673" style="fill: #1f77b4; stroke: #1f77b4"/>
     <use xlink:href="#m60408d22ba" x="57.681818" y="295.932181" style="fill: #1f77b4; stroke: #1f77b4"/>
     <use xlink:href="#m60408d22ba" x="57.681818" y="294.912688" style="fill: #1f77b4; stroke: #1f77b4"/>
     <use xlink:href="#m60408d22ba" x="57.681818" y="293.893196" style="fill: #1f77b4; stroke: #1f77b4"/>
     <use xlink:href="#m60408d22ba" x="57.681818" y="292.873704" style="fill: #1f77b4; stroke: #1f77b4"/>
     <use xlink:href="#m60408d22ba" x="57.681818" y="291.854211" style="fill: #1f77b4; stroke: #1f77b4"/>
     <use xlink:href="#m60408d22ba" x="57.681818" y="290.834719" style="fill: #1f77b4; stroke: #1f77b4"/>
     <use xlink:href="#m60408d22ba" x="57.681818" y="289.815226" style="fill: #1f77b4; stroke: #1f77b4"/>
     <use xlink:href="#m60408d22ba" x="57.681818" y="288.795734" style="fill: #1f77b4; stroke: #1f77b4"/>
     <use xlink:href="#m60408d22ba" x="57.681818" y="287.776241" style="fill: #1f77b4; stroke: #1f77b4"/>
     <use xlink:href="#m60408d22ba" x="57.681818" y="286.756749" style="fill: #1f77b4; stroke: #1f77b4"/>
     <use xlink:href="#m60408d22ba" x="57.681818" y="285.737256" style="fill: #1f77b4; stroke: #1f77b4"/>
     <use xlink:href="#m60408d22ba" x="57.681818" y="284.717764" style="fill: #1f77b4; stroke: #1f77b4"/>
     <use xlink:href="#m60408d22ba" x="57.681818" y="283.698271" style="fill: #1f77b4; stroke: #1f77b4"/>
     <use xlink:href="#m60408d22ba" x="57.681818" y="282.678779" style="fill: #1f77b4; stroke: #1f77b4"/>
     <use xlink:href="#m60408d22ba" x="57.681818" y="281.659287" style="fill: #1f77b4; stroke: #1f77b4"/>
     <use xlink:href="#m60408d22ba" x="57.681818" y="280.639794" style="fill: #1f77b4; stroke: #1f77b4"/>
     <use xlink:href="#m60408d22ba" x="57.681818" y="279.620302" style="fill: #1f77b4; stroke: #1f77b4"/>
     <use xlink:href="#m60408d22ba" x="57.681818" y="278.600809" style="fill: #1f77b4; stroke: #1f77b4"/>
     <use xlink:href="#m60408d22ba" x="57.681818" y="277.581317" style="fill: #1f77b4; stroke: #1f77b4"/>
     <use xlink:href="#m60408d22ba" x="57.681818" y="276.561824" style="fill: #1f77b4; stroke: #1f77b4"/>
     <use xlink:href="#m60408d22ba" x="57.681818" y="275.542332" style="fill: #1f77b4; stroke: #1f77b4"/>
     <use xlink:href="#m60408d22ba" x="57.681818" y="274.522839" style="fill: #1f77b4; stroke: #1f77b4"/>
     <use xlink:href="#m60408d22ba" x="57.681818" y="273.503347" style="fill: #1f77b4; stroke: #1f77b4"/>
     <use xlink:href="#m60408d22ba" x="57.681818" y="272.483854" style="fill: #1f77b4; stroke: #1f77b4"/>
     <use xlink:href="#m60408d22ba" x="57.681818" y="271.464362" style="fill: #1f77b4; stroke: #1f77b4"/>
     <use xlink:href="#m60408d22ba" x="57.681818" y="270.444869" style="fill: #1f77b4; stroke: #1f77b4"/>
     <use xlink:href="#m60408d22ba" x="57.681818" y="269.425377" style="fill: #1f77b4; stroke: #1f77b4"/>
     <use xlink:href="#m60408d22ba" x="57.681818" y="268.405885" style="fill: #1f77b4; stroke: #1f77b4"/>
     <use xlink:href="#m60408d22ba" x="57.681818" y="267.386392" style="fill: #1f77b4; stroke: #1f77b4"/>
     <use xlink:href="#m60408d22ba" x="57.681818" y="266.3669" style="fill: #1f77b4; stroke: #1f77b4"/>
     <use xlink:href="#m60408d22ba" x="57.681818" y="265.347407" style="fill: #1f77b4; stroke: #1f77b4"/>
     <use xlink:href="#m60408d22ba" x="57.681818" y="264.327915" style="fill: #1f77b4; stroke: #1f77b4"/>
     <use xlink:href="#m60408d22ba" x="57.681818" y="263.308422" style="fill: #1f77b4; stroke: #1f77b4"/>
     <use xlink:href="#m60408d22ba" x="57.681818" y="262.28893" style="fill: #1f77b4; stroke: #1f77b4"/>
     <use xlink:href="#m60408d22ba" x="57.681818" y="261.269437" style="fill: #1f77b4; stroke: #1f77b4"/>
     <use xlink:href="#m60408d22ba" x="57.681818" y="260.249945" style="fill: #1f77b4; stroke: #1f77b4"/>
     <use xlink:href="#m60408d22ba" x="57.681818" y="259.230452" style="fill: #1f77b4; stroke: #1f77b4"/>
     <use xlink:href="#m60408d22ba" x="57.681818" y="258.21096" style="fill: #1f77b4; stroke: #1f77b4"/>
     <use xlink:href="#m60408d22ba" x="57.681818" y="257.191467" style="fill: #1f77b4; stroke: #1f77b4"/>
     <use xlink:href="#m60408d22ba" x="57.681818" y="256.171975" style="fill: #1f77b4; stroke: #1f77b4"/>
     <use xlink:href="#m60408d22ba" x="57.681818" y="255.152483" style="fill: #1f77b4; stroke: #1f77b4"/>
     <use xlink:href="#m60408d22ba" x="57.681818" y="254.13299" style="fill: #1f77b4; stroke: #1f77b4"/>
     <use xlink:href="#m60408d22ba" x="57.681818" y="253.113498" style="fill: #1f77b4; stroke: #1f77b4"/>
     <use xlink:href="#m60408d22ba" x="184.5" y="252.094005" style="fill: #1f77b4; stroke: #1f77b4"/>
     <use xlink:href="#m60408d22ba" x="184.5" y="251.074513" style="fill: #1f77b4; stroke: #1f77b4"/>
     <use xlink:href="#m60408d22ba" x="184.5" y="250.05502" style="fill: #1f77b4; stroke: #1f77b4"/>
     <use xlink:href="#m60408d22ba" x="184.5" y="249.035528" style="fill: #1f77b4; stroke: #1f77b4"/>
     <use xlink:href="#m60408d22ba" x="184.5" y="248.016035" style="fill: #1f77b4; stroke: #1f77b4"/>
     <use xlink:href="#m60408d22ba" x="184.5" y="246.996543" style="fill: #1f77b4; stroke: #1f77b4"/>
     <use xlink:href="#m60408d22ba" x="184.5" y="245.97705" style="fill: #1f77b4; stroke: #1f77b4"/>
     <use xlink:href="#m60408d22ba" x="184.5" y="244.957558" style="fill: #1f77b4; stroke: #1f77b4"/>
     <use xlink:href="#m60408d22ba" x="184.5" y="243.938065" style="fill: #1f77b4; stroke: #1f77b4"/>
     <use xlink:href="#m60408d22ba" x="184.5" y="242.918573" style="fill: #1f77b4; stroke: #1f77b4"/>
     <use xlink:href="#m60408d22ba" x="184.5" y="241.899081" style="fill: #1f77b4; stroke: #1f77b4"/>
     <use xlink:href="#m60408d22ba" x="184.5" y="240.879588" style="fill: #1f77b4; stroke: #1f77b4"/>
     <use xlink:href="#m60408d22ba" x="184.5" y="239.860096" style="fill: #1f77b4; stroke: #1f77b4"/>
     <use xlink:href="#m60408d22ba" x="184.5" y="238.840603" style="fill: #1f77b4; stroke: #1f77b4"/>
     <use xlink:href="#m60408d22ba" x="184.5" y="237.821111" style="fill: #1f77b4; stroke: #1f77b4"/>
     <use xlink:href="#m60408d22ba" x="184.5" y="236.801618" style="fill: #1f77b4; stroke: #1f77b4"/>
     <use xlink:href="#m60408d22ba" x="184.5" y="235.782126" style="fill: #1f77b4; stroke: #1f77b4"/>
     <use xlink:href="#m60408d22ba" x="184.5" y="234.762633" style="fill: #1f77b4; stroke: #1f77b4"/>
     <use xlink:href="#m60408d22ba" x="184.5" y="233.743141" style="fill: #1f77b4; stroke: #1f77b4"/>
     <use xlink:href="#m60408d22ba" x="184.5" y="232.723648" style="fill: #1f77b4; stroke: #1f77b4"/>
     <use xlink:href="#m60408d22ba" x="184.5" y="231.704156" style="fill: #1f77b4; stroke: #1f77b4"/>
     <use xlink:href="#m60408d22ba" x="184.5" y="230.684663" style="fill: #1f77b4; stroke: #1f77b4"/>
     <use xlink:href="#m60408d22ba" x="184.5" y="229.665171" style="fill: #1f77b4; stroke: #1f77b4"/>
     <use xlink:href="#m60408d22ba" x="184.5" y="228.645679" style="fill: #1f77b4; stroke: #1f77b4"/>
     <use xlink:href="#m60408d22ba" x="184.5" y="227.626186" style="fill: #1f77b4; stroke: #1f77b4"/>
     <use xlink:href="#m60408d22ba" x="184.5" y="226.606694" style="fill: #1f77b4; stroke: #1f77b4"/>
     <use xlink:href="#m60408d22ba" x="184.5" y="225.587201" style="fill: #1f77b4; stroke: #1f77b4"/>
     <use xlink:href="#m60408d22ba" x="184.5" y="224.567709" style="fill: #1f77b4; stroke: #1f77b4"/>
     <use xlink:href="#m60408d22ba" x="184.5" y="223.548216" style="fill: #1f77b4; stroke: #1f77b4"/>
     <use xlink:href="#m60408d22ba" x="184.5" y="222.528724" style="fill: #1f77b4; stroke: #1f77b4"/>
     <use xlink:href="#m60408d22ba" x="184.5" y="221.509231" style="fill: #1f77b4; stroke: #1f77b4"/>
     <use xlink:href="#m60408d22ba" x="184.5" y="220.489739" style="fill: #1f77b4; stroke: #1f77b4"/>
     <use xlink:href="#m60408d22ba" x="184.5" y="219.470246" style="fill: #1f77b4; stroke: #1f77b4"/>
     <use xlink:href="#m60408d22ba" x="184.5" y="218.450754" style="fill: #1f77b4; stroke: #1f77b4"/>
     <use xlink:href="#m60408d22ba" x="184.5" y="217.431261" style="fill: #1f77b4; stroke: #1f77b4"/>
     <use xlink:href="#m60408d22ba" x="184.5" y="216.411769" style="fill: #1f77b4; stroke: #1f77b4"/>
     <use xlink:href="#m60408d22ba" x="184.5" y="215.392277" style="fill: #1f77b4; stroke: #1f77b4"/>
     <use xlink:href="#m60408d22ba" x="184.5" y="214.372784" style="fill: #1f77b4; stroke: #1f77b4"/>
     <use xlink:href="#m60408d22ba" x="184.5" y="213.353292" style="fill: #1f77b4; stroke: #1f77b4"/>
     <use xlink:href="#m60408d22ba" x="184.5" y="212.333799" style="fill: #1f77b4; stroke: #1f77b4"/>
     <use xlink:href="#m60408d22ba" x="184.5" y="211.314307" style="fill: #1f77b4; stroke: #1f77b4"/>
     <use xlink:href="#m60408d22ba" x="184.5" y="210.294814" style="fill: #1f77b4; stroke: #1f77b4"/>
     <use xlink:href="#m60408d22ba" x="184.5" y="209.275322" style="fill: #1f77b4; stroke: #1f77b4"/>
     <use xlink:href="#m60408d22ba" x="184.5" y="208.255829" style="fill: #1f77b4; stroke: #1f77b4"/>
     <use xlink:href="#m60408d22ba" x="184.5" y="207.236337" style="fill: #1f77b4; stroke: #1f77b4"/>
     <use xlink:href="#m60408d22ba" x="184.5" y="206.216844" style="fill: #1f77b4; stroke: #1f77b4"/>
     <use xlink:href="#m60408d22ba" x="184.5" y="205.197352" style="fill: #1f77b4; stroke: #1f77b4"/>
     <use xlink:href="#m60408d22ba" x="184.5" y="204.17786" style="fill: #1f77b4; stroke: #1f77b4"/>
     <use xlink:href="#m60408d22ba" x="184.5" y="203.158367" style="fill: #1f77b4; stroke: #1f77b4"/>
     <use xlink:href="#m60408d22ba" x="184.5" y="202.138875" style="fill: #1f77b4; stroke: #1f77b4"/>
     <use xlink:href="#m60408d22ba" x="184.5" y="201.119382" style="fill: #1f77b4; stroke: #1f77b4"/>
     <use xlink:href="#m60408d22ba" x="184.5" y="200.09989" style="fill: #1f77b4; stroke: #1f77b4"/>
     <use xlink:href="#m60408d22ba" x="184.5" y="199.080397" style="fill: #1f77b4; stroke: #1f77b4"/>
     <use xlink:href="#m60408d22ba" x="184.5" y="198.060905" style="fill: #1f77b4; stroke: #1f77b4"/>
     <use xlink:href="#m60408d22ba" x="184.5" y="197.041412" style="fill: #1f77b4; stroke: #1f77b4"/>
     <use xlink:href="#m60408d22ba" x="184.5" y="196.02192" style="fill: #1f77b4; stroke: #1f77b4"/>
     <use xlink:href="#m60408d22ba" x="184.5" y="195.002427" style="fill: #1f77b4; stroke: #1f77b4"/>
     <use xlink:href="#m60408d22ba" x="184.5" y="193.982935" style="fill: #1f77b4; stroke: #1f77b4"/>
     <use xlink:href="#m60408d22ba" x="184.5" y="192.963442" style="fill: #1f77b4; stroke: #1f77b4"/>
     <use xlink:href="#m60408d22ba" x="184.5" y="191.94395" style="fill: #1f77b4; stroke: #1f77b4"/>
     <use xlink:href="#m60408d22ba" x="184.5" y="190.924458" style="fill: #1f77b4; stroke: #1f77b4"/>
     <use xlink:href="#m60408d22ba" x="184.5" y="189.904965" style="fill: #1f77b4; stroke: #1f77b4"/>
     <use xlink:href="#m60408d22ba" x="184.5" y="188.885473" style="fill: #1f77b4; stroke: #1f77b4"/>
     <use xlink:href="#m60408d22ba" x="184.5" y="187.86598" style="fill: #1f77b4; stroke: #1f77b4"/>
     <use xlink:href="#m60408d22ba" x="184.5" y="186.846488" style="fill: #1f77b4; stroke: #1f77b4"/>
     <use xlink:href="#m60408d22ba" x="184.5" y="185.826995" style="fill: #1f77b4; stroke: #1f77b4"/>
     <use xlink:href="#m60408d22ba" x="184.5" y="184.807503" style="fill: #1f77b4; stroke: #1f77b4"/>
     <use xlink:href="#m60408d22ba" x="184.5" y="183.78801" style="fill: #1f77b4; stroke: #1f77b4"/>
     <use xlink:href="#m60408d22ba" x="184.5" y="182.768518" style="fill: #1f77b4; stroke: #1f77b4"/>
     <use xlink:href="#m60408d22ba" x="184.5" y="181.749025" style="fill: #1f77b4; stroke: #1f77b4"/>
     <use xlink:href="#m60408d22ba" x="184.5" y="180.729533" style="fill: #1f77b4; stroke: #1f77b4"/>
     <use xlink:href="#m60408d22ba" x="184.5" y="179.71004" style="fill: #1f77b4; stroke: #1f77b4"/>
     <use xlink:href="#m60408d22ba" x="184.5" y="178.690548" style="fill: #1f77b4; stroke: #1f77b4"/>
     <use xlink:href="#m60408d22ba" x="184.5" y="177.671056" style="fill: #1f77b4; stroke: #1f77b4"/>
     <use xlink:href="#m60408d22ba" x="184.5" y="176.651563" style="fill: #1f77b4; stroke: #1f77b4"/>
     <use xlink:href="#m60408d22ba" x="184.5" y="175.632071" style="fill: #1f77b4; stroke: #1f77b4"/>
     <use xlink:href="#m60408d22ba" x="184.5" y="174.612578" style="fill: #1f77b4; stroke: #1f77b4"/>
     <use xlink:href="#m60408d22ba" x="184.5" y="173.593086" style="fill: #1f77b4; stroke: #1f77b4"/>
     <use xlink:href="#m60408d22ba" x="184.5" y="172.573593" style="fill: #1f77b4; stroke: #1f77b4"/>
     <use xlink:href="#m60408d22ba" x="184.5" y="171.554101" style="fill: #1f77b4; stroke: #1f77b4"/>
     <use xlink:href="#m60408d22ba" x="184.5" y="170.534608" style="fill: #1f77b4; stroke: #1f77b4"/>
     <use xlink:href="#m60408d22ba" x="184.5" y="169.515116" style="fill: #1f77b4; stroke: #1f77b4"/>
     <use xlink:href="#m60408d22ba" x="184.5" y="168.495623" style="fill: #1f77b4; stroke: #1f77b4"/>
     <use xlink:href="#m60408d22ba" x="184.5" y="167.476131" style="fill: #1f77b4; stroke: #1f77b4"/>
     <use xlink:href="#m60408d22ba" x="184.5" y="166.456638" style="fill: #1f77b4; stroke: #1f77b4"/>
     <use xlink:href="#m60408d22ba" x="184.5" y="165.437146" style="fill: #1f77b4; stroke: #1f77b4"/>
     <use xlink:href="#m60408d22ba" x="184.5" y="164.417654" style="fill: #1f77b4; stroke: #1f77b4"/>
     <use xlink:href="#m60408d22ba" x="184.5" y="163.398161" style="fill: #1f77b4; stroke: #1f77b4"/>
     <use xlink:href="#m60408d22ba" x="184.5" y="162.378669" style="fill: #1f77b4; stroke: #1f77b4"/>
     <use xlink:href="#m60408d22ba" x="184.5" y="161.359176" style="fill: #1f77b4; stroke: #1f77b4"/>
     <use xlink:href="#m60408d22ba" x="184.5" y="160.339684" style="fill: #1f77b4; stroke: #1f77b4"/>
     <use xlink:href="#m60408d22ba" x="184.5" y="159.320191" style="fill: #1f77b4; stroke: #1f77b4"/>
     <use xlink:href="#m60408d22ba" x="184.5" y="158.300699" style="fill: #1f77b4; stroke: #1f77b4"/>
     <use xlink:href="#m60408d22ba" x="184.5" y="157.281206" style="fill: #1f77b4; stroke: #1f77b4"/>
     <use xlink:href="#m60408d22ba" x="184.5" y="156.261714" style="fill: #1f77b4; stroke: #1f77b4"/>
     <use xlink:href="#m60408d22ba" x="184.5" y="155.242221" style="fill: #1f77b4; stroke: #1f77b4"/>
     <use xlink:href="#m60408d22ba" x="184.5" y="154.222729" style="fill: #1f77b4; stroke: #1f77b4"/>
     <use xlink:href="#m60408d22ba" x="184.5" y="153.203236" style="fill: #1f77b4; stroke: #1f77b4"/>
     <use xlink:href="#m60408d22ba" x="184.5" y="152.183744" style="fill: #1f77b4; stroke: #1f77b4"/>
     <use xlink:href="#m60408d22ba" x="184.5" y="151.164252" style="fill: #1f77b4; stroke: #1f77b4"/>
     <use xlink:href="#m60408d22ba" x="184.5" y="150.144759" style="fill: #1f77b4; stroke: #1f77b4"/>
     <use xlink:href="#m60408d22ba" x="184.5" y="149.125267" style="fill: #1f77b4; stroke: #1f77b4"/>
     <use xlink:href="#m60408d22ba" x="184.5" y="148.105774" style="fill: #1f77b4; stroke: #1f77b4"/>
     <use xlink:href="#m60408d22ba" x="184.5" y="147.086282" style="fill: #1f77b4; stroke: #1f77b4"/>
     <use xlink:href="#m60408d22ba" x="184.5" y="146.066789" style="fill: #1f77b4; stroke: #1f77b4"/>
     <use xlink:href="#m60408d22ba" x="184.5" y="145.047297" style="fill: #1f77b4; stroke: #1f77b4"/>
     <use xlink:href="#m60408d22ba" x="184.5" y="144.027804" style="fill: #1f77b4; stroke: #1f77b4"/>
     <use xlink:href="#m60408d22ba" x="184.5" y="143.008312" style="fill: #1f77b4; stroke: #1f77b4"/>
     <use xlink:href="#m60408d22ba" x="184.5" y="141.988819" style="fill: #1f77b4; stroke: #1f77b4"/>
     <use xlink:href="#m60408d22ba" x="184.5" y="140.969327" style="fill: #1f77b4; stroke: #1f77b4"/>
     <use xlink:href="#m60408d22ba" x="184.5" y="139.949834" style="fill: #1f77b4; stroke: #1f77b4"/>
     <use xlink:href="#m60408d22ba" x="184.5" y="138.930342" style="fill: #1f77b4; stroke: #1f77b4"/>
     <use xlink:href="#m60408d22ba" x="184.5" y="137.91085" style="fill: #1f77b4; stroke: #1f77b4"/>
     <use xlink:href="#m60408d22ba" x="184.5" y="136.891357" style="fill: #1f77b4; stroke: #1f77b4"/>
     <use xlink:href="#m60408d22ba" x="184.5" y="135.871865" style="fill: #1f77b4; stroke: #1f77b4"/>
     <use xlink:href="#m60408d22ba" x="184.5" y="134.852372" style="fill: #1f77b4; stroke: #1f77b4"/>
     <use xlink:href="#m60408d22ba" x="184.5" y="133.83288" style="fill: #1f77b4; stroke: #1f77b4"/>
     <use xlink:href="#m60408d22ba" x="184.5" y="132.813387" style="fill: #1f77b4; stroke: #1f77b4"/>
     <use xlink:href="#m60408d22ba" x="184.5" y="131.793895" style="fill: #1f77b4; stroke: #1f77b4"/>
     <use xlink:href="#m60408d22ba" x="184.5" y="130.774402" style="fill: #1f77b4; stroke: #1f77b4"/>
     <use xlink:href="#m60408d22ba" x="184.5" y="129.75491" style="fill: #1f77b4; stroke: #1f77b4"/>
     <use xlink:href="#m60408d22ba" x="184.5" y="128.735417" style="fill: #1f77b4; stroke: #1f77b4"/>
     <use xlink:href="#m60408d22ba" x="184.5" y="127.715925" style="fill: #1f77b4; stroke: #1f77b4"/>
     <use xlink:href="#m60408d22ba" x="184.5" y="126.696433" style="fill: #1f77b4; stroke: #1f77b4"/>
     <use xlink:href="#m60408d22ba" x="184.5" y="125.67694" style="fill: #1f77b4; stroke: #1f77b4"/>
     <use xlink:href="#m60408d22ba" x="184.5" y="124.657448" style="fill: #1f77b4; stroke: #1f77b4"/>
     <use xlink:href="#m60408d22ba" x="184.5" y="123.637955" style="fill: #1f77b4; stroke: #1f77b4"/>
     <use xlink:href="#m60408d22ba" x="184.5" y="122.618463" style="fill: #1f77b4; stroke: #1f77b4"/>
     <use xlink:href="#m60408d22ba" x="184.5" y="121.59897" style="fill: #1f77b4; stroke: #1f77b4"/>
     <use xlink:href="#m60408d22ba" x="184.5" y="120.579478" style="fill: #1f77b4; stroke: #1f77b4"/>
     <use xlink:href="#m60408d22ba" x="184.5" y="119.559985" style="fill: #1f77b4; stroke: #1f77b4"/>
     <use xlink:href="#m60408d22ba" x="184.5" y="118.540493" style="fill: #1f77b4; stroke: #1f77b4"/>
     <use xlink:href="#m60408d22ba" x="184.5" y="117.521" style="fill: #1f77b4; stroke: #1f77b4"/>
     <use xlink:href="#m60408d22ba" x="184.5" y="116.501508" style="fill: #1f77b4; stroke: #1f77b4"/>
     <use xlink:href="#m60408d22ba" x="184.5" y="115.482015" style="fill: #1f77b4; stroke: #1f77b4"/>
     <use xlink:href="#m60408d22ba" x="184.5" y="114.462523" style="fill: #1f77b4; stroke: #1f77b4"/>
     <use xlink:href="#m60408d22ba" x="184.5" y="113.443031" style="fill: #1f77b4; stroke: #1f77b4"/>
     <use xlink:href="#m60408d22ba" x="184.5" y="112.423538" style="fill: #1f77b4; stroke: #1f77b4"/>
     <use xlink:href="#m60408d22ba" x="184.5" y="111.404046" style="fill: #1f77b4; stroke: #1f77b4"/>
     <use xlink:href="#m60408d22ba" x="184.5" y="110.384553" style="fill: #1f77b4; stroke: #1f77b4"/>
     <use xlink:href="#m60408d22ba" x="184.5" y="109.365061" style="fill: #1f77b4; stroke: #1f77b4"/>
     <use xlink:href="#m60408d22ba" x="184.5" y="108.345568" style="fill: #1f77b4; stroke: #1f77b4"/>
     <use xlink:href="#m60408d22ba" x="184.5" y="107.326076" style="fill: #1f77b4; stroke: #1f77b4"/>
     <use xlink:href="#m60408d22ba" x="184.5" y="106.306583" style="fill: #1f77b4; stroke: #1f77b4"/>
     <use xlink:href="#m60408d22ba" x="184.5" y="105.287091" style="fill: #1f77b4; stroke: #1f77b4"/>
     <use xlink:href="#m60408d22ba" x="184.5" y="104.267598" style="fill: #1f77b4; stroke: #1f77b4"/>
     <use xlink:href="#m60408d22ba" x="184.5" y="103.248106" style="fill: #1f77b4; stroke: #1f77b4"/>
     <use xlink:href="#m60408d22ba" x="184.5" y="102.228613" style="fill: #1f77b4; stroke: #1f77b4"/>
     <use xlink:href="#m60408d22ba" x="184.5" y="101.209121" style="fill: #1f77b4; stroke: #1f77b4"/>
     <use xlink:href="#m60408d22ba" x="184.5" y="100.189629" style="fill: #1f77b4; stroke: #1f77b4"/>
     <use xlink:href="#m60408d22ba" x="184.5" y="99.170136" style="fill: #1f77b4; stroke: #1f77b4"/>
     <use xlink:href="#m60408d22ba" x="184.5" y="98.150644" style="fill: #1f77b4; stroke: #1f77b4"/>
     <use xlink:href="#m60408d22ba" x="184.5" y="97.131151" style="fill: #1f77b4; stroke: #1f77b4"/>
     <use xlink:href="#m60408d22ba" x="184.5" y="96.111659" style="fill: #1f77b4; stroke: #1f77b4"/>
     <use xlink:href="#m60408d22ba" x="184.5" y="95.092166" style="fill: #1f77b4; stroke: #1f77b4"/>
     <use xlink:href="#m60408d22ba" x="184.5" y="94.072674" style="fill: #1f77b4; stroke: #1f77b4"/>
     <use xlink:href="#m60408d22ba" x="184.5" y="93.053181" style="fill: #1f77b4; stroke: #1f77b4"/>
     <use xlink:href="#m60408d22ba" x="184.5" y="92.033689" style="fill: #1f77b4; stroke: #1f77b4"/>
     <use xlink:href="#m60408d22ba" x="184.5" y="91.014196" style="fill: #1f77b4; stroke: #1f77b4"/>
     <use xlink:href="#m60408d22ba" x="184.5" y="89.994704" style="fill: #1f77b4; stroke: #1f77b4"/>
     <use xlink:href="#m60408d22ba" x="184.5" y="88.975211" style="fill: #1f77b4; stroke: #1f77b4"/>
     <use xlink:href="#m60408d22ba" x="311.318182" y="87.955719" style="fill: #1f77b4; stroke: #1f77b4"/>
     <use xlink:href="#m60408d22ba" x="311.318182" y="86.936227" style="fill: #1f77b4; stroke: #1f77b4"/>
     <use xlink:href="#m60408d22ba" x="311.318182" y="85.916734" style="fill: #1f77b4; stroke: #1f77b4"/>
     <use xlink:href="#m60408d22ba" x="311.318182" y="84.897242" style="fill: #1f77b4; stroke: #1f77b4"/>
     <use xlink:href="#m60408d22ba" x="311.318182" y="83.877749" style="fill: #1f77b4; stroke: #1f77b4"/>
     <use xlink:href="#m60408d22ba" x="311.318182" y="82.858257" style="fill: #1f77b4; stroke: #1f77b4"/>
     <use xlink:href="#m60408d22ba" x="311.318182" y="81.838764" style="fill: #1f77b4; stroke: #1f77b4"/>
     <use xlink:href="#m60408d22ba" x="311.318182" y="80.819272" style="fill: #1f77b4; stroke: #1f77b4"/>
     <use xlink:href="#m60408d22ba" x="311.318182" y="79.799779" style="fill: #1f77b4; stroke: #1f77b4"/>
     <use xlink:href="#m60408d22ba" x="311.318182" y="78.780287" style="fill: #1f77b4; stroke: #1f77b4"/>
     <use xlink:href="#m60408d22ba" x="311.318182" y="77.760794" style="fill: #1f77b4; stroke: #1f77b4"/>
     <use xlink:href="#m60408d22ba" x="311.318182" y="76.741302" style="fill: #1f77b4; stroke: #1f77b4"/>
     <use xlink:href="#m60408d22ba" x="311.318182" y="75.721809" style="fill: #1f77b4; stroke: #1f77b4"/>
     <use xlink:href="#m60408d22ba" x="311.318182" y="74.702317" style="fill: #1f77b4; stroke: #1f77b4"/>
     <use xlink:href="#m60408d22ba" x="311.318182" y="73.682825" style="fill: #1f77b4; stroke: #1f77b4"/>
     <use xlink:href="#m60408d22ba" x="311.318182" y="72.663332" style="fill: #1f77b4; stroke: #1f77b4"/>
     <use xlink:href="#m60408d22ba" x="311.318182" y="71.64384" style="fill: #1f77b4; stroke: #1f77b4"/>
     <use xlink:href="#m60408d22ba" x="311.318182" y="70.624347" style="fill: #1f77b4; stroke: #1f77b4"/>
     <use xlink:href="#m60408d22ba" x="311.318182" y="69.604855" style="fill: #1f77b4; stroke: #1f77b4"/>
     <use xlink:href="#m60408d22ba" x="311.318182" y="68.585362" style="fill: #1f77b4; stroke: #1f77b4"/>
     <use xlink:href="#m60408d22ba" x="311.318182" y="67.56587" style="fill: #1f77b4; stroke: #1f77b4"/>
     <use xlink:href="#m60408d22ba" x="311.318182" y="66.546377" style="fill: #1f77b4; stroke: #1f77b4"/>
     <use xlink:href="#m60408d22ba" x="311.318182" y="65.526885" style="fill: #1f77b4; stroke: #1f77b4"/>
     <use xlink:href="#m60408d22ba" x="311.318182" y="64.507392" style="fill: #1f77b4; stroke: #1f77b4"/>
     <use xlink:href="#m60408d22ba" x="311.318182" y="63.4879" style="fill: #1f77b4; stroke: #1f77b4"/>
     <use xlink:href="#m60408d22ba" x="311.318182" y="62.468408" style="fill: #1f77b4; stroke: #1f77b4"/>
     <use xlink:href="#m60408d22ba" x="311.318182" y="61.448915" style="fill: #1f77b4; stroke: #1f77b4"/>
     <use xlink:href="#m60408d22ba" x="311.318182" y="60.429423" style="fill: #1f77b4; stroke: #1f77b4"/>
     <use xlink:href="#m60408d22ba" x="311.318182" y="59.40993" style="fill: #1f77b4; stroke: #1f77b4"/>
     <use xlink:href="#m60408d22ba" x="311.318182" y="58.390438" style="fill: #1f77b4; stroke: #1f77b4"/>
     <use xlink:href="#m60408d22ba" x="311.318182" y="57.370945" style="fill: #1f77b4; stroke: #1f77b4"/>
     <use xlink:href="#m60408d22ba" x="311.318182" y="56.351453" style="fill: #1f77b4; stroke: #1f77b4"/>
    </g>
   </g>
   <g id="line2d_17">
    <path d="M 46.395 323.172 
L 51.975 317.628 
" style="fill: none; stroke: #000000; stroke-width: 0.8; stroke-linecap: square"/>
   </g>
   <g id="line2d_18">
    <path d="M 49.185 323.172 
L 54.765 317.628 
" style="fill: none; stroke: #000000; stroke-width: 0.8; stroke-linecap: square"/>
   </g>
   <g id="patch_3">
    <path d="M 45 320.4 
L 45 43.2 
" style="fill: none; stroke: #000000; stroke-width: 0.8; stroke-linejoin: miter; stroke-linecap: square"/>
   </g>
   <g id="patch_4">
    <path d="M 324 320.4 
L 324 43.2 
" style="fill: none; stroke: #000000; stroke-width: 0.8; stroke-linejoin: miter; stroke-linecap: square"/>
   </g>
   <g id="patch_5">
    <path d="M 45 320.4 
L 324 320.4 
" style="fill: none; stroke: #000000; stroke-width: 0.8; stroke-linejoin: miter; stroke-linecap: square"/>
   </g>
  </g>
  <g id="axes_2">
   <g id="matplotlib.axis_3">
    <g id="ytick_7">
     <g id="line2d_19">
      <path d="M 45 320.4 
L 324 320.4 
" clip-path="url(#pa83155490c)" style="fill: none; stroke-dasharray: 0.8,1.32; stroke-dashoffset: 0; stroke: #b0b0b0; stroke-opacity: 0.5; stroke-width: 0.8"/>
     </g>
     <g id="line2d_20">
      <defs>
       <path id="md461722c6a" d="M 0 0 
L 3.5 0 
" style="stroke: #000000; stroke-width: 0.8"/>
      </defs>
      <g>
       <use xlink:href="#md461722c6a" x="324" y="320.4" style="stroke: #000000; stroke-width: 0.8"/>
      </g>
     </g>
     <g id="text_12">
      <!-- 0 kB -->
      <g transform="translate(331 323.859249) scale(0.1 -0.1)">
       <defs>
        <path id="CMR17-6b" d="M 1670 1673 
C 1664 1686 1632 1724 1632 1743 
C 1632 1756 2086 2171 2144 2222 
C 2509 2528 2739 2560 2906 2560 
L 2906 2733 
C 2867 2733 2854 2733 2848 2720 
L 2534 2720 
C 2355 2720 2080 2720 1907 2733 
L 1907 2566 
C 1997 2559 2061 2508 2061 2419 
C 2061 2291 1933 2170 1926 2170 
L 960 1289 
L 960 4396 
L 198 4326 
L 198 4160 
C 576 4160 634 4122 634 3817 
L 634 426 
C 634 184 608 153 198 153 
L 198 -13 
C 352 0 634 0 794 0 
C 954 0 1235 0 1389 -13 
L 1389 153 
C 979 153 954 178 954 428 
L 954 1130 
L 1395 1532 
L 2042 574 
C 2118 459 2182 369 2182 286 
C 2182 172 2067 153 1990 153 
L 1990 -13 
C 2144 0 2419 0 2579 0 
C 2694 0 2931 0 3040 0 
L 3040 153 
C 2739 153 2669 210 2477 491 
L 1670 1673 
z
" transform="scale(0.015625)"/>
        <path id="CMR17-42" d="M 333 4352 
L 333 4186 
C 774 4186 845 4186 845 3900 
L 845 452 
C 845 166 774 166 333 166 
L 333 0 
L 2534 0 
C 3354 0 3885 583 3885 1164 
C 3885 1741 3360 2233 2675 2233 
C 3290 2356 3718 2771 3718 3264 
C 3718 3802 3194 4352 2368 4352 
L 333 4352 
z
M 1248 2304 
L 1248 3937 
C 1248 4155 1261 4186 1517 4186 
L 2336 4186 
C 2970 4186 3251 3674 3251 3277 
C 3251 2791 2861 2304 2170 2304 
L 1248 2304 
z
M 1517 166 
C 1261 166 1248 197 1248 413 
L 1248 2202 
L 2432 2202 
C 3091 2202 3411 1625 3411 1162 
C 3411 699 3046 166 2349 166 
L 1517 166 
z
" transform="scale(0.015625)"/>
       </defs>
       <use xlink:href="#CMR17-30" transform="scale(0.996264)"/>
       <use xlink:href="#CMR17-6b" transform="translate(75.766443 0) scale(0.996264)"/>
       <use xlink:href="#CMR17-42" transform="translate(124.059359 0) scale(0.996264)"/>
      </g>
     </g>
    </g>
    <g id="ytick_8">
     <g id="line2d_21">
      <path d="M 45 236.121166 
L 324 236.121166 
" clip-path="url(#pa83155490c)" style="fill: none; stroke-dasharray: 0.8,1.32; stroke-dashoffset: 0; stroke: #b0b0b0; stroke-opacity: 0.5; stroke-width: 0.8"/>
     </g>
     <g id="line2d_22">
      <g>
       <use xlink:href="#md461722c6a" x="324" y="236.121166" style="stroke: #000000; stroke-width: 0.8"/>
      </g>
     </g>
     <g id="text_13">
      <!-- 10 kB -->
      <g transform="translate(331 239.580415) scale(0.1 -0.1)">
       <use xlink:href="#CMR17-31" transform="scale(0.996264)"/>
       <use xlink:href="#CMR17-30" transform="translate(45.690477 0) scale(0.996264)"/>
       <use xlink:href="#CMR17-6b" transform="translate(121.456921 0) scale(0.996264)"/>
       <use xlink:href="#CMR17-42" transform="translate(169.749836 0) scale(0.996264)"/>
      </g>
     </g>
    </g>
    <g id="ytick_9">
     <g id="line2d_23">
      <path d="M 45 151.842331 
L 324 151.842331 
" clip-path="url(#pa83155490c)" style="fill: none; stroke-dasharray: 0.8,1.32; stroke-dashoffset: 0; stroke: #b0b0b0; stroke-opacity: 0.5; stroke-width: 0.8"/>
     </g>
     <g id="line2d_24">
      <g>
       <use xlink:href="#md461722c6a" x="324" y="151.842331" style="stroke: #000000; stroke-width: 0.8"/>
      </g>
     </g>
     <g id="text_14">
      <!-- 20 kB -->
      <g transform="translate(331 155.30158) scale(0.1 -0.1)">
       <use xlink:href="#CMR17-32" transform="scale(0.996264)"/>
       <use xlink:href="#CMR17-30" transform="translate(45.690477 0) scale(0.996264)"/>
       <use xlink:href="#CMR17-6b" transform="translate(121.456921 0) scale(0.996264)"/>
       <use xlink:href="#CMR17-42" transform="translate(169.749836 0) scale(0.996264)"/>
      </g>
     </g>
    </g>
    <g id="ytick_10">
     <g id="line2d_25">
      <path d="M 45 67.563497 
L 324 67.563497 
" clip-path="url(#pa83155490c)" style="fill: none; stroke-dasharray: 0.8,1.32; stroke-dashoffset: 0; stroke: #b0b0b0; stroke-opacity: 0.5; stroke-width: 0.8"/>
     </g>
     <g id="line2d_26">
      <g>
       <use xlink:href="#md461722c6a" x="324" y="67.563497" style="stroke: #000000; stroke-width: 0.8"/>
      </g>
     </g>
     <g id="text_15">
      <!-- 30 kB -->
      <g transform="translate(331 71.022746) scale(0.1 -0.1)">
       <use xlink:href="#CMR17-33" transform="scale(0.996264)"/>
       <use xlink:href="#CMR17-30" transform="translate(45.690477 0) scale(0.996264)"/>
       <use xlink:href="#CMR17-6b" transform="translate(121.456921 0) scale(0.996264)"/>
       <use xlink:href="#CMR17-42" transform="translate(169.749836 0) scale(0.996264)"/>
      </g>
     </g>
    </g>
    <g id="text_16">
     <!-- Cumulative size of updates (kB) -->
     <g transform="translate(368.070505 252.355006) rotate(-90) scale(0.1 -0.1)">
      <defs>
       <path id="CMR17-43" d="M 3974 4289 
C 3974 4403 3968 4410 3930 4410 
C 3904 4410 3898 4403 3853 4327 
L 3571 3792 
C 3258 4187 2874 4416 2381 4416 
C 1286 4416 294 3456 294 2148 
C 294 826 1286 -128 2387 -128 
C 3366 -128 3974 730 3974 1461 
C 3974 1524 3974 1550 3917 1550 
C 3866 1550 3866 1531 3859 1474 
C 3808 585 3168 38 2477 38 
C 1824 38 781 495 781 2147 
C 781 3805 1843 4250 2464 4250 
C 3187 4250 3712 3628 3834 2745 
C 3846 2668 3846 2655 3904 2655 
C 3974 2655 3974 2668 3974 2783 
L 3974 4289 
z
" transform="scale(0.015625)"/>
       <path id="CMR17-7a" d="M 2310 2605 
C 2362 2670 2362 2682 2362 2695 
C 2362 2752 2336 2752 2221 2752 
L 275 2752 
L 211 1760 
L 326 1760 
C 371 2381 442 2650 1178 2650 
L 1958 2650 
L 128 96 
C 128 0 134 0 269 0 
L 2291 0 
L 2381 1152 
L 2266 1152 
C 2214 442 2131 115 1350 115 
L 531 115 
L 2310 2605 
z
" transform="scale(0.015625)"/>
      </defs>
      <use xlink:href="#CMR17-43" transform="scale(0.996264)"/>
      <use xlink:href="#CMR17-75" transform="translate(66.509881 0) scale(0.996264)"/>
      <use xlink:href="#CMR17-6d" transform="translate(117.40525 0) scale(0.996264)"/>
      <use xlink:href="#CMR17-75" transform="translate(191.722386 0) scale(0.996264)"/>
      <use xlink:href="#CMR17-6c" transform="translate(242.617756 0) scale(0.996264)"/>
      <use xlink:href="#CMR17-61" transform="translate(267.488815 0) scale(0.996264)"/>
      <use xlink:href="#CMR17-74" transform="translate(313.179292 0) scale(0.996264)"/>
      <use xlink:href="#CMR17-69" transform="translate(348.460059 0) scale(0.996264)"/>
      <use xlink:href="#CMR17-76" transform="translate(373.331118 0) scale(0.996264)"/>
      <use xlink:href="#CMR17-65" transform="translate(419.02158 0) scale(0.996264)"/>
      <use xlink:href="#CMR17-73" transform="translate(489.583207 0) scale(0.996264)"/>
      <use xlink:href="#CMR17-69" transform="translate(525.384544 0) scale(0.996264)"/>
      <use xlink:href="#CMR17-7a" transform="translate(550.255603 0) scale(0.996264)"/>
      <use xlink:href="#CMR17-65" transform="translate(590.741263 0) scale(0.996264)"/>
      <use xlink:href="#CMR17-6f" transform="translate(661.30289 0) scale(0.996264)"/>
      <use xlink:href="#CMR17-66" transform="translate(706.993367 0) scale(0.996264)"/>
      <use xlink:href="#CMR17-75" transform="translate(764.542846 0) scale(0.996264)"/>
      <use xlink:href="#CMR17-70" transform="translate(815.438216 0) scale(0.996264)"/>
      <use xlink:href="#CMR17-64" transform="translate(868.936024 0) scale(0.996264)"/>
      <use xlink:href="#CMR17-61" transform="translate(919.831394 0) scale(0.996264)"/>
      <use xlink:href="#CMR17-74" transform="translate(965.521871 0) scale(0.996264)"/>
      <use xlink:href="#CMR17-65" transform="translate(1000.802639 0) scale(0.996264)"/>
      <use xlink:href="#CMR17-73" transform="translate(1041.288299 0) scale(0.996264)"/>
      <use xlink:href="#CMR17-28" transform="translate(1107.165603 0) scale(0.996264)"/>
      <use xlink:href="#CMR17-6b" transform="translate(1142.446371 0) scale(0.996264)"/>
      <use xlink:href="#CMR17-42" transform="translate(1190.739287 0) scale(0.996264)"/>
      <use xlink:href="#CMR17-29" transform="translate(1255.928041 0) scale(0.996264)"/>
     </g>
    </g>
   </g>
   <g id="line2d_27">
    <path d="M 57.681818 319.428818 
L 57.681818 254.096261 
L 184.5 253.067466 
L 184.5 89.43978 
L 311.318182 88.410986 
L 311.318182 56.353753 
L 311.318182 56.353753 
" clip-path="url(#pa83155490c)" style="fill: none; stroke-dasharray: 5.55,2.4; stroke-dashoffset: 0; stroke: #1f77b4; stroke-opacity: 0; stroke-width: 1.5"/>
   </g>
   <g id="patch_6">
    <path d="M 45 320.4 
L 45 43.2 
" style="fill: none; stroke: #000000; stroke-width: 0.8; stroke-linejoin: miter; stroke-linecap: square"/>
   </g>
   <g id="patch_7">
    <path d="M 324 320.4 
L 324 43.2 
" style="fill: none; stroke: #000000; stroke-width: 0.8; stroke-linejoin: miter; stroke-linecap: square"/>
   </g>
   <g id="patch_8">
    <path d="M 45 320.4 
L 324 320.4 
" style="fill: none; stroke: #000000; stroke-width: 0.8; stroke-linejoin: miter; stroke-linecap: square"/>
   </g>
  </g>
 </g>
 <defs>
  <clipPath id="pa83155490c">
   <rect x="45" y="43.2" width="279" height="277.2"/>
  </clipPath>
 </defs>
</svg>
